<?xml version="1.0" encoding="utf-8"?>
<!-- Generated by IcoMoon.io -->
<svg version="1.1" xmlns="http://www.w3.org/2000/svg" xmlns:xlink="http://www.w3.org/1999/xlink" width="752" height="32" viewBox="0 0 752 32">
<svg id="icon-burger-menu" width="32" height="32" viewBox="0 0 32 32" x="0" y="0">
<path d="M4 22.667c0 0.736 0.597 1.333 1.333 1.333h21.333c0.736 0 1.333-0.597 1.333-1.333s-0.597-1.333-1.333-1.333h-21.333c-0.736 0-1.333 0.597-1.333 1.333zM4 16c0 0.736 0.597 1.333 1.333 1.333h21.333c0.736 0 1.333-0.597 1.333-1.333s-0.597-1.333-1.333-1.333h-21.333c-0.736 0-1.333 0.597-1.333 1.333zM5.333 8c-0.736 0-1.333 0.597-1.333 1.333s0.597 1.333 1.333 1.333h21.333c0.736 0 1.333-0.597 1.333-1.333s-0.597-1.333-1.333-1.333h-21.333z"></path>
</svg>
<svg id="icon-close" width="20" height="20" viewBox="5 5 24 24" x="0" y="0">
<path d="M25.592 8.556c0.593-0.593 0.593-1.555 0-2.149v0c-0.593-0.593-1.555-0.593-2.149 0l-7.444 7.444-7.444-7.444c-0.593-0.593-1.555-0.593-2.149 0v0c-0.593 0.593-0.593 1.555 0 2.149l7.444 7.444-7.444 7.444c-0.593 0.593-0.593 1.555 0 2.149v0c0.593 0.593 1.555 0.593 2.149 0l7.444-7.444 7.444 7.444c0.593 0.593 1.555 0.593 2.149 0v0c0.593-0.593 0.593-1.555 0-2.149l-7.444-7.444 7.444-7.444z"></path>
</svg>
<svg id="icon-Sound-waves" width="27" height="32" viewBox="0 0 27 32" x="96" y="0">
<path d="M3.208 11.789c0.354 0 0.642 0.287 0.642 0.642v7.138c0 0.354-0.287 0.642-0.642 0.642s-0.642-0.287-0.642-0.642v-7.138c0-0.354 0.287-0.642 0.642-0.642z"></path>
<path d="M0.642 13.895c0.354 0 0.642 0.287 0.642 0.642v2.927c0 0.354-0.287 0.642-0.642 0.642s-0.642-0.287-0.642-0.642v-2.927c0-0.354 0.287-0.642 0.642-0.642z"></path>
<path d="M26.306 13.895c0.354 0 0.642 0.287 0.642 0.642v2.927c0 0.354-0.287 0.642-0.642 0.642s-0.642-0.287-0.642-0.642v-2.927c0-0.354 0.287-0.642 0.642-0.642z"></path>
<path d="M5.774 10.526c0.354 0 0.642 0.287 0.642 0.642v9.664c0 0.354-0.287 0.642-0.642 0.642s-0.642-0.287-0.642-0.642v-9.664c0-0.354 0.287-0.642 0.642-0.642z"></path>
<path d="M8.341 6.737c0.354 0 0.642 0.287 0.642 0.642v17.243c0 0.354-0.287 0.642-0.642 0.642s-0.642-0.287-0.642-0.642v-17.243c0-0.354 0.287-0.642 0.642-0.642z"></path>
<path d="M10.907 9.263c0.354 0 0.642 0.287 0.642 0.642v12.19c0 0.354-0.287 0.642-0.642 0.642s-0.642-0.287-0.642-0.642v-12.19c0-0.354 0.287-0.642 0.642-0.642z"></path>
<path d="M13.474 2.526c0.354 0 0.642 0.287 0.642 0.642v25.664c0 0.354-0.287 0.642-0.642 0.642s-0.642-0.287-0.642-0.642v-25.664c0-0.354 0.287-0.642 0.642-0.642z"></path>
<path d="M16.040 0c0.354 0 0.642 0.287 0.642 0.642v30.717c0 0.354-0.287 0.642-0.642 0.642s-0.642-0.287-0.642-0.642v-30.717c0-0.354 0.287-0.642 0.642-0.642z"></path>
<path d="M18.606 6.737c0.354 0 0.642 0.287 0.642 0.642v17.243c0 0.354-0.287 0.642-0.642 0.642s-0.642-0.287-0.642-0.642v-17.243c0-0.354 0.287-0.642 0.642-0.642z"></path>
<path d="M21.173 9.684c0.354 0 0.642 0.287 0.642 0.642v11.348c0 0.354-0.287 0.642-0.642 0.642s-0.642-0.287-0.642-0.642v-11.348c0-0.354 0.287-0.642 0.642-0.642z"></path>
<path d="M23.739 11.368c0.354 0 0.642 0.287 0.642 0.642v7.98c0 0.354-0.287 0.642-0.642 0.642s-0.642-0.287-0.642-0.642v-7.98c0-0.354 0.287-0.642 0.642-0.642z"></path>
</svg>
</svg>
